<svg width="26" height="26" viewBox="0 0 26 26" fill="none" xmlns="http://www.w3.org/2000/svg">
<path d="M24 11H20.895C20.3 4.78 16.992 0 13 0C9.048 0 5.715 4.683 5.11 11H2C0.897 11 0 11.897 0 13C0 14.103 0.897 15 2 15H5.108C5.703 21.301 9.04 26 13 26C16.992 26 20.3 21.22 20.895 15H24C25.103 15 26 14.103 26 13C26 11.897 25.103 11 24 11ZM10.5 15C11.603 15 12.5 14.103 12.5 13C12.5 11.897 11.603 11 10.5 11H7.125C7.622 6.69 9.665 3.5 12 3.5C14.71 3.5 17 7.85 17 13C17 18.15 14.71 22.5 12 22.5C9.659 22.5 7.61 19.293 7.123 15H10.5Z" fill="#363535"/>
</svg>
