<svg width="24" height="24" viewBox="0 0 24 24" fill="none" xmlns="http://www.w3.org/2000/svg">
<path d="M9.5 0.5H4.5V5.5M9.5 0.5V5.5M9.5 0.5H14.5V5.5M9.5 5.5H4.5M9.5 5.5H14.5M9.5 5.5V10.5M4.5 5.5V10.5M14.5 5.5H19.5V10.5M14.5 5.5V10.5M19.5 10.5H14.5M19.5 10.5V11.77M14.5 10.5H9.5M14.5 10.5V13.42M9.5 10.5H4.5M9.5 10.5V14.27M4.5 10.5V11.91" stroke="black" stroke-linecap="round" stroke-linejoin="round"/>
<path d="M3.5 11.5C3.5 11.5 11 14.5 11 15.5C12.5 13.5 20.5 11.5 20.5 11.5V22C20.5 22.3978 20.342 22.7794 20.0607 23.0607C19.7794 23.342 19.3978 23.5 19 23.5H5C4.60218 23.5 4.22064 23.342 3.93934 23.0607C3.65804 22.7794 3.5 22.3978 3.5 22V11.5Z" stroke="black" stroke-linecap="round" stroke-linejoin="round"/>
<path d="M20.5 14C18 14 12.5 19.5 12.5 19.5L11 15.5L7.5 17.5C7.5 17.5 5.5 14 3.5 14" stroke="black" stroke-linecap="round" stroke-linejoin="round"/>
</svg>
