<svg width="247" height="40" viewBox="0 0 247 40" fill="none" xmlns="http://www.w3.org/2000/svg">
<g clip-path="url(#clip0_308_5515)">
<path d="M29.3969 0.961242V30.6977H23.5771V11.4115L15.2084 25.2177H14.5287L6.16 11.454V30.6977H0.297676V0.961242H6.32992L14.8685 15.0223L23.3647 0.961242H29.3969ZM37.9482 24.544C39.7871 26.7943 42.8764 26.6549 45.5154 25.4799C47.4558 24.616 48.6452 23.1099 48.9979 21.6043L54.0707 22.1359C53.4216 25.5869 51.1849 28.3963 47.4593 30.055C40.9396 32.9578 34.8389 30.3264 32.2644 24.544C29.6899 18.7616 31.8554 12.4499 37.9482 9.73718C43.6918 7.17998 49.7882 9.90628 52.3281 15.611C52.6564 16.3484 52.8726 17.0427 53.0499 17.7543L37.9482 24.544ZM36.5416 20.2995L46.9615 15.6925C45.0965 13.1747 42.5274 13.1657 40.4042 13.9154C37.4251 14.9673 36.0179 17.5566 36.5416 20.2995ZM72.6465 0.961242H78.1265V30.6977H72.6465V28.1913C71.1172 30.1454 68.8657 31.2924 65.7647 31.2924C60.0723 31.2924 55.3994 26.4071 55.3994 20.0775C55.3994 13.7479 60.0723 8.86264 65.7647 8.86264C68.8657 8.86264 71.1172 10.0096 72.6465 11.9637V0.961242ZM66.7842 26.0673C70.1402 26.0673 72.6465 23.6459 72.6465 20.0775C72.6465 16.5091 70.1402 14.0878 66.7842 14.0878C63.3857 14.0878 60.8794 16.5091 60.8794 20.0775C60.8794 23.6459 63.3857 26.0673 66.7842 26.0673ZM84.2332 6.90853C82.4065 6.90853 80.8772 5.37923 80.8772 3.55256C80.8772 1.72589 82.4065 0.15411 84.2332 0.15411C86.1023 0.15411 87.6316 1.72589 87.6316 3.55256C87.6316 5.37923 86.1023 6.90853 84.2332 6.90853ZM81.5144 30.6977V9.45737H86.9944V30.6977H81.5144ZM106.835 9.45737H112.315V30.6977H106.835V28.1913C105.306 30.1029 103.012 31.2924 99.9107 31.2924C94.2608 31.2924 89.5879 26.4071 89.5879 20.0775C89.5879 13.7479 94.2608 8.86264 99.9107 8.86264C103.012 8.86264 105.306 10.0521 106.835 11.9637V9.45737ZM100.93 26.0673C104.329 26.0673 106.835 23.6459 106.835 20.0775C106.835 16.5091 104.329 14.0878 100.93 14.0878C97.5743 14.0878 95.0679 16.5091 95.0679 20.0775C95.0679 23.6459 97.5743 26.0673 100.93 26.0673ZM126.081 31.2924C119.624 31.2924 114.866 26.4071 114.866 20.0775C114.866 13.7479 119.624 8.86264 126.081 8.86264C130.244 8.86264 133.855 11.0716 135.597 14.3426L130.881 17.1039C130.032 15.3622 128.205 14.2577 126.038 14.2577C122.767 14.2577 120.346 16.6791 120.346 20.0775C120.346 23.4335 122.767 25.8549 126.038 25.8549C128.247 25.8549 130.074 24.7929 130.924 23.0512L135.682 25.7699C133.855 29.0834 130.244 31.2924 126.081 31.2924ZM150.305 8.86264C154.808 8.86264 158.334 12.0062 158.334 17.6561V30.6977H152.854V18.3358C152.854 15.4471 151.113 13.9603 148.649 13.9603C145.972 13.9603 143.976 15.5321 143.976 19.2279V30.6977H138.496V0.961242H143.976V11.8363C145.25 9.92465 147.459 8.86264 150.305 8.86264ZM177.525 9.45737H183.005V30.6977H177.525V28.1913C175.996 30.1029 173.702 31.2924 170.601 31.2924C164.951 31.2924 160.278 26.4071 160.278 20.0775C160.278 13.7479 164.951 8.86264 170.601 8.86264C173.702 8.86264 175.996 10.0521 177.525 11.9637V9.45737ZM171.62 26.0673C175.019 26.0673 177.525 23.6459 177.525 20.0775C177.525 16.5091 175.019 14.0878 171.62 14.0878C168.264 14.0878 165.758 16.5091 165.758 20.0775C165.758 23.6459 168.264 26.0673 171.62 26.0673ZM191.83 13.1107C192.935 10.222 195.611 9.03256 198.287 9.03256V15.1498C195.441 14.8099 191.83 16.0843 191.83 20.5448V30.6977H186.35V9.45737H191.83V13.1107ZM216.552 9.45737H221.905V29.6781C221.905 36.645 216.425 39.7885 210.817 39.7885C206.272 39.7885 202.618 38.0468 200.749 34.6059L205.422 31.9296C206.314 33.5864 207.716 34.9033 210.987 34.9033C214.428 34.9033 216.552 33.0341 216.552 29.6781V27.3842C215.065 29.3808 212.771 30.6127 209.755 30.6127C203.723 30.6127 199.177 25.7274 199.177 19.7377C199.177 13.7904 203.723 8.86264 209.755 8.86264C212.771 8.86264 215.065 10.0946 216.552 12.0912V9.45737ZM210.295 25.5575C213.736 25.5575 216.242 23.1361 216.242 19.7377C216.242 16.3817 213.736 13.9603 210.295 13.9603C206.854 13.9603 204.347 16.3817 204.347 19.7377C204.347 23.1361 206.854 25.5575 210.295 25.5575ZM229.88 22.329C230.645 25.1327 232.981 26.3222 235.87 26.3222C237.994 26.3222 239.693 25.4301 240.628 24.1981L245.046 26.747C243.049 29.6357 239.863 31.2924 235.785 31.2924C228.648 31.2924 224.145 26.4071 224.145 20.0775C224.145 13.7479 228.691 8.86264 235.36 8.86264C241.647 8.86264 246.108 13.8329 246.108 20.0775C246.108 20.8847 246.023 21.6068 245.896 22.329H229.88ZM229.795 18.0809H240.628C239.948 15.0223 237.654 13.7904 235.36 13.7904C232.429 13.7904 230.433 15.3622 229.795 18.0809Z" fill="#80868B"/>
</g>
<defs>
<clipPath id="clip0_308_5515">
<rect width="246.202" height="40" fill="white"/>
</clipPath>
</defs>
</svg>
