<svg width="794" height="129" viewBox="0 0 794 129" fill="none" xmlns="http://www.w3.org/2000/svg">
<g clip-path="url(#clip0_3_59)">
<mask id="mask0_3_59" style="mask-type:luminance" maskUnits="userSpaceOnUse" x="0" y="0" width="794" height="129">
<path d="M794 0H0V129H794V0Z" fill="white"/>
</mask>
<g mask="url(#mask0_3_59)">
<path d="M94.805 3.10001V99H76.036V36.802L49.047 81.327H46.855L19.866 36.939V99H0.959991V3.10001H20.414L47.951 48.447L75.351 3.10001H94.805ZM122.383 79.1544C128.314 86.4116 138.276 85.9619 146.787 82.1727C153.045 79.3866 156.881 74.5294 158.018 69.674L174.378 71.3881C172.285 82.5177 165.071 91.578 153.056 96.9274C132.03 106.289 112.355 97.8026 104.053 79.1544C95.75 60.5062 102.734 40.1509 122.383 31.4024C140.906 23.1554 160.567 31.9477 168.758 50.3456C169.817 52.7236 170.514 54.9627 171.086 57.2575L122.383 79.1544ZM117.847 65.4658L151.451 50.6082C145.436 42.4885 137.151 42.4593 130.304 44.8771C120.696 48.2695 116.158 56.62 117.847 65.4658ZM234.285 3.10001H251.958V99H234.285V90.917C229.353 97.219 222.092 100.918 212.091 100.918C193.733 100.918 178.663 85.163 178.663 64.75C178.663 44.337 193.733 28.582 212.091 28.582C222.092 28.582 229.353 32.281 234.285 38.583V3.10001ZM215.379 84.067C226.202 84.067 234.285 76.258 234.285 64.75C234.285 53.242 226.202 45.433 215.379 45.433C204.419 45.433 196.336 53.242 196.336 64.75C196.336 76.258 204.419 84.067 215.379 84.067ZM271.652 22.28C265.761 22.28 260.829 17.348 260.829 11.457C260.829 5.56601 265.761 0.497009 271.652 0.497009C277.68 0.497009 282.612 5.56601 282.612 11.457C282.612 17.348 277.68 22.28 271.652 22.28ZM262.884 99V30.5H280.557V99H262.884ZM344.543 30.5H362.216V99H344.543V90.917C339.611 97.082 332.213 100.918 322.212 100.918C303.991 100.918 288.921 85.163 288.921 64.75C288.921 44.337 303.991 28.582 322.212 28.582C332.213 28.582 339.611 32.418 344.543 38.583V30.5ZM325.5 84.067C336.46 84.067 344.543 76.258 344.543 64.75C344.543 53.242 336.46 45.433 325.5 45.433C314.677 45.433 306.594 53.242 306.594 64.75C306.594 76.258 314.677 84.067 325.5 84.067ZM406.611 100.918C385.787 100.918 370.443 85.163 370.443 64.75C370.443 44.337 385.787 28.582 406.611 28.582C420.037 28.582 431.682 35.706 437.299 46.255L422.092 55.16C419.352 49.543 413.461 45.981 406.474 45.981C395.925 45.981 388.116 53.79 388.116 64.75C388.116 75.573 395.925 83.382 406.474 83.382C413.598 83.382 419.489 79.957 422.229 74.34L437.573 83.108C431.682 93.794 420.037 100.918 406.611 100.918ZM484.735 28.582C499.257 28.582 510.628 38.72 510.628 56.941V99H492.955V59.133C492.955 49.817 487.338 45.022 479.392 45.022C470.761 45.022 464.322 50.091 464.322 62.01V99H446.649V3.10001H464.322V38.172C468.432 32.007 475.556 28.582 484.735 28.582ZM572.518 30.5H590.191V99H572.518V90.917C567.586 97.082 560.188 100.918 550.187 100.918C531.966 100.918 516.896 85.163 516.896 64.75C516.896 44.337 531.966 28.582 550.187 28.582C560.188 28.582 567.586 32.418 572.518 38.583V30.5ZM553.475 84.067C564.435 84.067 572.518 76.258 572.518 64.75C572.518 53.242 564.435 45.433 553.475 45.433C542.652 45.433 534.569 53.242 534.569 64.75C534.569 76.258 542.652 84.067 553.475 84.067ZM618.653 42.282C622.215 32.966 630.846 29.13 639.477 29.13V48.858C630.298 47.762 618.653 51.872 618.653 66.257V99H600.98V30.5H618.653V42.282ZM698.38 30.5H715.642V95.712C715.642 118.18 697.969 128.318 679.885 128.318C665.226 128.318 653.444 122.701 647.416 111.604L662.486 102.973C665.363 108.316 669.884 112.563 680.433 112.563C691.53 112.563 698.38 106.535 698.38 95.712V88.314C693.585 94.753 686.187 98.726 676.46 98.726C657.006 98.726 642.347 82.971 642.347 63.654C642.347 44.474 657.006 28.582 676.46 28.582C686.187 28.582 693.585 32.555 698.38 38.994V30.5ZM678.2 82.423C689.297 82.423 697.38 74.614 697.38 63.654C697.38 52.831 689.297 45.022 678.2 45.022C667.103 45.022 659.02 52.831 659.02 63.654C659.02 74.614 667.103 82.423 678.2 82.423ZM741.364 72.011C743.83 81.053 751.365 84.889 760.681 84.889C767.531 84.889 773.011 82.012 776.025 78.039L790.273 86.259C783.834 95.575 773.559 100.918 760.407 100.918C737.391 100.918 722.869 85.163 722.869 64.75C722.869 44.337 737.528 28.582 759.037 28.582C779.313 28.582 793.698 44.611 793.698 64.75C793.698 67.353 793.424 69.682 793.013 72.011H741.364ZM741.09 58.311H776.025C773.833 48.447 766.435 44.474 759.037 44.474C749.584 44.474 743.145 49.543 741.09 58.311Z" fill="black"/>
</g>
</g>
<defs>
<clipPath id="clip0_3_59">
<rect width="794" height="129" fill="white"/>
</clipPath>
</defs>
</svg>
